<svg width="245" height="40" viewBox="0 0 260 40" fill="none" xmlns="http://www.w3.org/2000/svg">
<path d="M25.7843 3.30814L22.8943 10.4194C22.7362 10.8245 22.2621 11.027 21.8331 10.8695C21.4944 10.7345 21.3138 10.4194 21.3364 10.0818L21.7202 2.43048C21.7879 1.26027 22.7814 0.382612 23.9329 0.42762C25.1069 0.495132 25.9875 1.48531 25.9423 2.63301C25.9197 2.85806 25.852 3.0831 25.7843 3.30814Z" fill="#F16037"/>
<path fill-rule="evenodd" clip-rule="evenodd" d="M32.8965 0H37.6153C38.1346 0 38.6313 0.517593 38.6088 0.990177C38.6088 1.54795 38.342 1.77851 38.1606 1.93531C38.1517 1.94299 38.1431 1.95049 38.1346 1.95785L26.8455 12.8048V12.8273C26.4843 13.2099 25.8746 13.2099 25.5134 12.8273C25.2199 12.5347 25.1747 12.1072 25.3553 11.7471C25.3553 11.7471 30.7515 1.6878 31.1805 0.900161C31.6095 0.11252 32.5352 0 32.8965 0ZM39.8731 19.8482C39.8731 30.8302 30.9547 39.7193 19.9366 39.7193C8.94098 39.7193 0 30.8302 0 19.8482C0 9.83396 7.42823 1.55247 17.0917 0.179729C17.1341 0.169178 17.1764 0.163574 17.2164 0.158277C17.2618 0.152278 17.3041 0.146674 17.3401 0.134721C17.6562 0.157225 17.9271 0.359762 18.0174 0.674818L18.04 0.96737L18.8077 9.90147L18.8302 10.149C18.8077 10.4641 18.5819 10.7116 18.2884 10.8016C18.2432 10.8016 18.198 10.8016 18.1529 10.8241C13.9082 11.6568 10.6795 15.3925 10.6795 19.8708C10.6795 24.9567 14.8113 29.0974 19.9366 29.0974C25.0392 29.0974 29.1711 24.9792 29.1936 19.9158V19.8933V19.8482V19.8032C29.2162 19.4882 29.4194 19.2406 29.7129 19.1506L29.8484 19.1281L38.812 17.2828L39.0152 17.2378H39.0603C39.399 17.2378 39.6925 17.4628 39.7828 17.8004C39.7828 17.8317 39.7877 17.863 39.7929 17.8966C39.7989 17.9354 39.8054 17.9772 39.8054 18.0254C39.8506 18.588 39.8731 19.2181 39.8731 19.8482ZM26.2585 19.8485C26.2585 23.3141 23.4362 26.1496 19.9591 26.1496C16.4821 26.1496 13.6372 23.3366 13.6372 19.8485C13.6372 16.3829 16.4595 13.5474 19.9591 13.5474C23.4362 13.5699 26.2585 16.3829 26.2585 19.8485Z" fill="url(#paint0_linear)"/>
<path d="M36.5994 14.0875L29.284 16.4504C28.8551 16.5854 28.4035 16.3604 28.268 15.9328C28.1551 15.5953 28.2906 15.2352 28.539 15.0327L34.6577 10.3968C35.5834 9.6992 36.9155 9.87924 37.6154 10.8019C38.3153 11.7246 38.1347 13.0523 37.209 13.7499C37.0284 13.9075 36.8026 14.02 36.5994 14.0875Z" fill="#F16037"/>
<path d="M61.5136 28.7837H65.8715C65.3522 30.4783 64.3361 31.8792 62.8232 32.9412C61.3104 34.0032 59.662 34.5454 57.8557 34.5454C56.7718 34.5454 55.7106 34.3421 54.6493 33.9128C53.588 33.4835 52.6623 32.8734 51.8268 32.1052C51.0139 31.3144 50.3591 30.388 49.9301 29.3034C49.4785 28.2188 49.2527 27.0665 49.2527 25.869C49.2527 23.5191 50.0881 21.5533 51.7591 19.9039C53.43 18.277 55.4622 17.4636 57.8331 17.4636C59.6395 17.4636 61.2878 18.0059 62.8232 19.0905C64.3587 20.175 65.3522 21.5759 65.849 23.2931H61.491C61.062 22.5927 60.5427 22.073 59.9556 21.7341C59.3685 21.3952 58.6234 21.237 57.7879 21.237C56.3879 21.237 55.2815 21.6889 54.4235 22.5701C53.5655 23.4513 53.159 24.581 53.159 25.9367C53.159 27.3376 53.6106 28.5126 54.5138 29.4164C55.417 30.3428 56.5686 30.7947 57.9911 30.7947C58.7137 30.7947 59.3685 30.6139 60.0007 30.2524C60.6104 29.8683 61.1297 29.3938 61.5136 28.7837Z" fill="#6E7171"/>
<path d="M75.9646 17.4636C78.313 17.4636 80.3 18.2985 81.9258 19.9684C83.5515 21.6382 84.387 23.669 84.387 26.0384C84.387 28.3852 83.5515 30.3935 81.858 32.0633C80.1645 33.7331 78.1549 34.5454 75.784 34.5454C73.4583 34.5454 71.4487 33.7105 69.7777 32.0181C68.0842 30.3483 67.2488 28.34 67.2488 26.0158C67.2488 23.6239 68.0842 21.593 69.7777 19.9232C71.4712 18.2985 73.526 17.4636 75.9646 17.4636ZM75.8066 21.232C75.1969 21.232 74.5873 21.3674 74.0228 21.6156C73.4583 21.8638 72.9389 22.2249 72.5099 22.6762C71.6293 23.5562 71.1777 24.6845 71.1777 26.0384C71.1777 27.3472 71.6293 28.4754 72.5099 29.4006C73.3905 30.3258 74.4969 30.7771 75.8292 30.7771C77.184 30.7771 78.313 30.3258 79.1936 29.4232C80.0742 28.5205 80.5258 27.3923 80.5258 26.0384C80.5258 24.707 80.0742 23.5788 79.171 22.631C78.2452 21.6833 77.1388 21.232 75.8066 21.232Z" fill="#6E7171"/>
<path d="M70.4778 16.1027L74.2035 12.1121H77.2744L81.0452 16.1027H77.2744L75.7163 14.2539L73.9099 16.1027H70.4778Z" fill="#6E7171"/>
<path d="M98.0705 28.7837H102.428C101.909 30.4783 100.893 31.8792 99.3801 32.9412C97.8673 34.0032 96.2189 34.5454 94.4125 34.5454C93.3287 34.5454 92.2674 34.3421 91.2062 33.9128C90.1449 33.4835 89.2191 32.8734 88.3837 32.1052C87.5708 31.3144 86.916 30.388 86.487 29.3034C86.0354 28.2188 85.8096 27.0665 85.8096 25.869C85.8096 23.5191 86.645 21.5533 88.3159 19.9039C89.9869 18.277 92.0191 17.4636 94.39 17.4636C96.1964 17.4636 97.8447 18.0059 99.3801 19.0905C100.916 20.175 101.909 21.5759 102.406 23.2931H98.0479C97.6189 22.5927 97.0996 22.073 96.5125 21.7341C95.9028 21.3952 95.1803 21.237 94.3448 21.237C92.9448 21.237 91.8384 21.6889 90.9804 22.5701C90.1223 23.4513 89.6933 24.581 89.6933 25.9367C89.6933 27.3376 90.1449 28.5126 91.0481 29.4164C91.9513 30.3428 93.1029 30.7947 94.5254 30.7947C95.248 30.7947 95.9254 30.6139 96.5351 30.2524C97.1899 29.8683 97.6866 29.3938 98.0705 28.7837Z" fill="#6E7171"/>
<path d="M124.173 28.7837H128.531C128.012 30.4783 126.996 31.8792 125.483 32.9412C123.97 34.0032 122.321 34.5454 120.515 34.5454C119.431 34.5454 118.37 34.3421 117.309 33.9128C116.247 33.4835 115.322 32.8734 114.486 32.1052C113.651 31.3144 113.019 30.388 112.59 29.3034C112.138 28.2188 111.912 27.0665 111.912 25.869C111.912 23.5191 112.748 21.5533 114.418 19.9039C116.089 18.277 118.122 17.4636 120.492 17.4636C122.299 17.4636 123.947 18.0059 125.483 19.0905C127.018 20.175 128.012 21.5759 128.508 23.2931H124.15C123.721 22.5927 123.225 22.073 122.615 21.7341C122.005 21.3952 121.283 21.237 120.447 21.237C119.047 21.237 117.941 21.6889 117.083 22.5701C116.225 23.4513 115.796 24.581 115.796 25.9367C115.796 27.3376 116.247 28.5126 117.151 29.4164C118.054 30.3428 119.205 30.7947 120.628 30.7947C121.351 30.7947 122.028 30.6139 122.638 30.2524C123.27 29.8683 123.789 29.3938 124.173 28.7837Z" fill="#6E7171"/>
<path d="M138.692 17.4636C141.04 17.4636 143.027 18.2985 144.653 19.9684C146.279 21.6382 147.114 23.669 147.114 26.0384C147.114 28.3852 146.279 30.3935 144.585 32.0633C142.914 33.7331 140.882 34.5454 138.511 34.5454C136.186 34.5454 134.176 33.7105 132.505 32.0181C130.812 30.3483 129.976 28.34 129.976 26.0158C129.976 23.6239 130.812 21.593 132.505 19.9232C134.199 18.2985 136.253 17.4636 138.692 17.4636ZM138.511 21.232C137.902 21.232 137.292 21.3674 136.727 21.6156C136.163 21.8638 135.644 22.2249 135.215 22.6762C134.334 23.5562 133.882 24.6845 133.882 26.0384C133.882 27.3472 134.334 28.4754 135.215 29.4006C136.095 30.3258 137.202 30.7771 138.534 30.7771C139.889 30.7771 141.018 30.3258 141.898 29.4232C142.802 28.5205 143.231 27.3923 143.231 26.0384C143.231 24.707 142.779 23.5788 141.876 22.631C140.973 21.6833 139.866 21.232 138.511 21.232Z" fill="#6E7171"/>
<path d="M133.205 16.1027L136.931 12.1121H140.002L143.773 16.1027H140.002L138.421 14.2539L136.637 16.1027H133.205Z" fill="#6E7171"/>
<path d="M160.73 28.7837H165.088C164.569 30.4783 163.553 31.8792 162.04 32.9412C160.527 34.0032 158.878 34.5454 157.072 34.5454C155.988 34.5454 154.927 34.3421 153.866 33.9128C152.804 33.4835 151.879 32.8734 151.043 32.1052C150.208 31.3144 149.598 30.388 149.147 29.3034C148.695 28.2188 148.492 27.0665 148.492 25.869C148.492 23.5191 149.327 21.5533 150.998 19.9039C152.669 18.277 154.701 17.4636 157.072 17.4636C158.878 17.4636 160.527 18.0059 162.062 19.0905C163.598 20.175 164.591 21.5759 165.088 23.2931H160.73C160.301 22.5927 159.782 22.073 159.195 21.7341C158.585 21.3952 157.862 21.237 157.027 21.237C155.627 21.237 154.521 21.6889 153.663 22.5701C152.804 23.4513 152.375 24.581 152.375 25.9367C152.375 27.3376 152.827 28.5126 153.73 29.4164C154.633 30.3428 155.785 30.7947 157.208 30.7947C157.93 30.7947 158.608 30.6139 159.217 30.2524C159.849 29.8683 160.346 29.3938 160.73 28.7837Z" fill="#6E7171"/>
<path d="M79.8032 7.91854L81.158 4.37881C81.4289 3.67988 81.6547 3.20641 81.858 2.93586C82.0612 2.6653 82.3096 2.48494 82.6483 2.39475C83.2353 2.23693 83.6192 2.46239 83.7547 3.02604C83.8676 3.49951 83.574 4.19844 82.8515 5.10028L80.2322 8.4371C80.0516 8.66256 79.9161 8.77529 79.8484 8.79784C79.7129 8.82038 79.6451 8.79784 79.6 8.66256C79.5548 8.59492 79.6226 8.34692 79.8032 7.91854Z" fill="#4FBA69"/>
<path d="M81.4742 9.56432L83.9128 6.65588C84.387 6.09223 84.7709 5.70894 85.0418 5.50603C85.3128 5.30311 85.6289 5.21293 85.9676 5.25802C86.5773 5.30311 86.8482 5.61876 86.8031 6.2275C86.7579 6.72352 86.2611 7.26462 85.2676 7.89591L81.7 10.1956C81.4516 10.3534 81.2936 10.4211 81.2032 10.4211C81.0678 10.4211 81 10.3534 81.0226 10.2182C81.0226 10.128 81.1806 9.92506 81.4742 9.56432Z" fill="#4FBA69"/>
<path d="M82.9872 11.278L86.329 9.49683C86.9838 9.15864 87.4806 8.93318 87.7967 8.86554C88.1354 8.77536 88.4515 8.82045 88.7451 8.97827C89.287 9.24883 89.4225 9.65466 89.1515 10.1958C88.9257 10.6241 88.2483 10.9623 87.0967 11.1652L82.9194 11.9544C82.6485 11.9994 82.4678 12.022 82.3775 11.9769C82.2646 11.9093 82.2195 11.8416 82.2872 11.7289C82.3549 11.6387 82.5807 11.5034 82.9872 11.278Z" fill="#4FBA69"/>
<path d="M142.463 7.96355L143.818 4.40127C144.089 3.70234 144.314 3.22888 144.518 2.93578C144.721 2.66522 144.969 2.48486 145.308 2.39467C145.895 2.23685 146.279 2.46231 146.437 3.04851C146.55 3.52198 146.256 4.2209 145.534 5.14529L142.914 8.50466C142.734 8.73012 142.598 8.84285 142.53 8.8654C142.395 8.88794 142.327 8.8654 142.282 8.73012C142.214 8.63994 142.282 8.39193 142.463 7.96355Z" fill="#F16037"/>
<path d="M144.133 9.60947L146.595 6.67848C147.069 6.11483 147.453 5.73155 147.724 5.52863C147.995 5.32572 148.311 5.23554 148.649 5.25808C149.259 5.30317 149.553 5.64136 149.485 6.22756C149.44 6.72358 148.943 7.28723 147.927 7.91852L144.337 10.2408C144.088 10.3986 143.93 10.4662 143.84 10.4662C143.704 10.4662 143.637 10.3986 143.659 10.2633C143.682 10.1957 143.84 9.97021 144.133 9.60947Z" fill="#F16037"/>
<path d="M145.669 11.3457L149.033 9.56452C149.688 9.22633 150.185 9.00087 150.524 8.93323C150.862 8.84305 151.178 8.88814 151.472 9.04596C152.014 9.31652 152.149 9.72235 151.901 10.2635C151.675 10.6918 150.998 11.03 149.824 11.2329L145.624 12.022C145.33 12.0671 145.15 12.0897 145.082 12.0446C144.969 11.977 144.924 11.8868 144.992 11.7966C145.037 11.7064 145.263 11.5486 145.669 11.3457Z" fill="#F16037"/>
<path d="M193.402 28.092V24.006H195.67C197.272 24.006 197.992 24.762 197.992 26.058C197.992 27.318 197.272 28.092 195.67 28.092H193.402ZM200.098 26.058C200.098 24.024 198.64 22.332 195.67 22.332H191.35V34.842H193.402V29.766H195.67C198.928 29.766 200.098 27.84 200.098 26.058Z" fill="#FFFFFF"/>
<path d="M211.505 29.874C211.505 26.76 209.273 24.762 206.447 24.762C203.621 24.762 201.389 26.76 201.389 29.874C201.389 32.988 203.531 35.004 206.357 35.004C209.201 35.004 211.505 32.988 211.505 29.874ZM203.477 29.874C203.477 27.624 204.863 26.544 206.411 26.544C207.941 26.544 209.399 27.624 209.399 29.874C209.399 32.124 207.887 33.222 206.357 33.222C204.809 33.222 203.477 32.124 203.477 29.874Z" fill="#FFFFFF"/>
<path d="M213.534 34.842H215.586V24.924H213.534V34.842ZM214.578 23.376C215.244 23.376 215.766 22.872 215.766 22.17C215.766 21.504 215.244 21 214.578 21C213.876 21 213.354 21.504 213.354 22.17C213.354 22.872 213.876 23.376 214.578 23.376Z" fill="#FFFFFF"/>
<path d="M225.318 34.842H227.352V28.992C227.352 26.22 225.606 24.762 223.284 24.762C222.096 24.762 220.998 25.248 220.332 26.058V24.924H218.28V34.842H220.332V29.298C220.332 27.48 221.322 26.544 222.834 26.544C224.328 26.544 225.318 27.48 225.318 29.298V34.842Z" fill="#FFFFFF"/>
<path d="M230.293 32.088C230.293 34.104 231.391 34.842 233.155 34.842H234.775V33.132H233.515C232.651 33.132 232.363 32.826 232.363 32.088V26.598H234.775V24.924H232.363V22.458H230.293V24.924H229.123V26.598H230.293V32.088Z" fill="#FFFFFF"/>
<path d="M244.065 32.07C243.957 28.488 238.359 29.604 238.359 27.606C238.359 26.94 238.935 26.49 240.033 26.49C241.149 26.49 241.815 27.084 241.887 27.948H243.939C243.831 25.968 242.355 24.762 240.105 24.762C237.765 24.762 236.289 26.04 236.289 27.624C236.289 31.26 242.049 30.144 242.049 32.088C242.049 32.772 241.419 33.276 240.231 33.276C239.097 33.276 238.323 32.61 238.251 31.8H236.127C236.217 33.6 237.891 35.004 240.267 35.004C242.607 35.004 244.065 33.744 244.065 32.07Z" fill="#FFFFFF"/>
<defs>
<linearGradient id="paint0_linear" x1="0" y1="24.2729" x2="39.8731" y2="24.2729" gradientUnits="userSpaceOnUse">
<stop stop-color="#97C93D"/>
<stop offset="1" stop-color="#4FBA69"/>
</linearGradient>
</defs>
</svg>
