<svg width="12px" height="12px" viewBox="12 0 15 40" fill="none" xmlns="http://www.w3.org/2000/svg">
<path d="M25.7843 3.30814L22.8943 10.4194C22.7362 10.8245 22.2621 11.027 21.8331 10.8695C21.4944 10.7345 21.3138 10.4194 21.3364 10.0818L21.7202 2.43048C21.7879 1.26027 22.7814 0.382612 23.9329 0.42762C25.1069 0.495132 25.9875 1.48531 25.9423 2.63301C25.9197 2.85806 25.852 3.0831 25.7843 3.30814Z" fill="#F16037"/>
<path fill-rule="evenodd" clip-rule="evenodd" d="M32.8965 0H37.6153C38.1346 0 38.6313 0.517593 38.6088 0.990177C38.6088 1.54795 38.342 1.77851 38.1606 1.93531C38.1517 1.94299 38.1431 1.95049 38.1346 1.95785L26.8455 12.8048V12.8273C26.4843 13.2099 25.8746 13.2099 25.5134 12.8273C25.2199 12.5347 25.1747 12.1072 25.3553 11.7471C25.3553 11.7471 30.7515 1.6878 31.1805 0.900161C31.6095 0.11252 32.5352 0 32.8965 0ZM39.8731 19.8482C39.8731 30.8302 30.9547 39.7193 19.9366 39.7193C8.94098 39.7193 0 30.8302 0 19.8482C0 9.83396 7.42823 1.55247 17.0917 0.179729C17.1341 0.169178 17.1764 0.163574 17.2164 0.158277C17.2618 0.152278 17.3041 0.146674 17.3401 0.134721C17.6562 0.157225 17.9271 0.359762 18.0174 0.674818L18.04 0.96737L18.8077 9.90147L18.8302 10.149C18.8077 10.4641 18.5819 10.7116 18.2884 10.8016C18.2432 10.8016 18.198 10.8016 18.1529 10.8241C13.9082 11.6568 10.6795 15.3925 10.6795 19.8708C10.6795 24.9567 14.8113 29.0974 19.9366 29.0974C25.0392 29.0974 29.1711 24.9792 29.1936 19.9158V19.8933V19.8482V19.8032C29.2162 19.4882 29.4194 19.2406 29.7129 19.1506L29.8484 19.1281L38.812 17.2828L39.0152 17.2378H39.0603C39.399 17.2378 39.6925 17.4628 39.7828 17.8004C39.7828 17.8317 39.7877 17.863 39.7929 17.8966C39.7989 17.9354 39.8054 17.9772 39.8054 18.0254C39.8506 18.588 39.8731 19.2181 39.8731 19.8482ZM26.2585 19.8485C26.2585 23.3141 23.4362 26.1496 19.9591 26.1496C16.4821 26.1496 13.6372 23.3366 13.6372 19.8485C13.6372 16.3829 16.4595 13.5474 19.9591 13.5474C23.4362 13.5699 26.2585 16.3829 26.2585 19.8485Z" fill="url(#paint0_linear)"/>
<path d="M36.5994 14.0875L29.284 16.4504C28.8551 16.5854 28.4035 16.3604 28.268 15.9328C28.1551 15.5953 28.2906 15.2352 28.539 15.0327L34.6577 10.3968C35.5834 9.6992 36.9155 9.87924 37.6154 10.8019C38.3153 11.7246 38.1347 13.0523 37.209 13.7499C37.0284 13.9075 36.8026 14.02 36.5994 14.0875Z" fill="#F16037"/>
<defs>
<linearGradient id="paint0_linear" x1="0" y1="24.2729" x2="39.8731" y2="24.2729" gradientUnits="userSpaceOnUse">
<stop stop-color="#F16037"/>
<stop offset="1" stop-color="#F16037"/>
</linearGradient>
</defs>
</svg>
